<svg width="209" height="81" viewBox="0 0 209 81" fill="none" xmlns="http://www.w3.org/2000/svg">
<g clip-path="url(#clip0_4322_17)">
<path d="M16.41 16.8774V64.1539H44.8683V16.8774H16.41ZM38.4392 24.2229H36.042C33.5642 24.2229 31.5555 26.2315 31.5555 28.7093V39.8302H34.7664V41.6629H31.5555V52.3293C31.5555 54.8071 33.5642 56.8158 36.042 56.8158H38.4392V59.1103H36.1153C33.7914 58.8977 31.7608 57.6295 30.6612 55.7601C29.5615 57.6295 27.5309 58.8977 25.207 59.1103H22.3773V56.8158H25.229C27.6995 56.8158 29.7155 54.7925 29.7155 52.3293V41.6703H26.5046V39.8375H29.7155V28.7167C29.7155 26.2388 27.7068 24.2302 25.229 24.2302H22.37V22.3975H24.9871C27.3183 22.3975 29.3563 23.6584 30.4559 25.5351C31.5555 23.6657 33.5935 22.3975 35.9174 22.3975H38.4392V24.2302V24.2229Z" fill="#F7B82D"/>
<path d="M189.946 25.6377C190.906 25.6377 191.646 25.909 192.167 26.4514C192.687 26.9939 192.951 27.7563 192.951 28.7313C192.951 29.7063 192.673 30.5054 192.108 31.1065C191.551 31.7076 190.774 32.0082 189.799 32.0082C188.824 32.0082 188.054 31.737 187.519 31.1945C186.977 30.652 186.705 29.9043 186.705 28.9439C186.705 27.9836 187.006 27.1919 187.607 26.5687C188.208 25.9456 188.985 25.6377 189.946 25.6377ZM192.768 56.8084H186.764L187.065 48.1654L186.823 36.2748L192.827 35.7909L192.409 47.6229L192.768 56.8084Z" fill="white"/>
<path d="M180.811 51.4129C180.848 51.9334 180.929 52.2853 181.053 52.4613C181.178 52.6372 181.413 52.7325 181.772 52.7325C182.131 52.7325 182.549 52.6739 183.033 52.5492L183.451 52.9084L182.908 56.0314C181.948 56.6325 180.848 57.0137 179.602 57.175C177.681 57.0137 176.457 55.9727 175.936 54.052H175.577C174.133 55.4156 172.638 56.4346 171.076 57.1163C168.114 57.1163 165.835 56.1853 164.229 54.3233C162.631 52.4613 161.825 49.8075 161.825 46.3693C161.825 42.9312 162.756 40.2627 164.618 38.386C166.48 36.502 169.053 35.5637 172.337 35.5637C173.217 35.5637 174.177 35.6443 175.218 35.8056L175.159 25.7184L181.105 25.2345L180.687 47.6302L180.804 51.4129H180.811ZM167.242 45.3943C167.242 50.0787 168.664 52.4173 171.509 52.4173C172.791 52.4173 174.008 51.7942 175.174 50.5552L175.233 48.0921L175.115 40.3434C173.957 39.8229 172.85 39.5663 171.816 39.5663C168.774 39.5663 167.249 41.509 167.249 45.387L167.242 45.3943Z" fill="white"/>
<path d="M152.419 43.7742C152.419 41.575 151.481 40.4753 149.597 40.4753C148.233 40.4753 146.796 41.1131 144.927 42.396V47.6229L145.572 56.8158H139.568L139.869 48.1581L139.627 36.2674L145.389 35.7836V38.9065H145.638C147.361 37.3231 149.157 36.2454 151.041 35.6003C153.321 35.6003 155.051 36.1208 156.231 37.1618C157.411 38.2028 157.983 39.6836 157.939 41.6043L157.822 47.6082L158.064 56.8011H152.06L152.419 43.7669V43.7742Z" fill="white"/>
<path d="M134.715 52.5199C135.074 52.5199 135.492 52.4613 135.976 52.3366L136.394 52.6958L135.851 55.8188C134.891 56.4199 133.791 56.8011 132.545 56.9624C130.661 56.8011 129.481 55.6795 129.004 53.5975H128.521C126.798 55.2396 125.038 56.3173 123.235 56.8378C120.992 56.8378 119.269 56.3246 118.067 55.3056C116.865 54.2866 116.263 52.7911 116.263 50.8338L116.381 45.5483L116.197 36.0622L121.959 35.5783L121.776 48.8472C121.776 50.9658 122.678 52.0287 124.481 52.0287C125.764 52.0287 127.062 51.4496 128.389 50.2913V36.0622L134.092 35.5783L133.733 51.193C133.733 52.0727 134.055 52.5126 134.693 52.5126L134.715 52.5199Z" fill="white"/>
<path d="M115.897 25.2052L115.545 29.809L115.127 30.1169C113.742 29.4937 112.525 29.1858 111.454 29.1858C109.636 29.1858 108.713 30.2855 108.669 32.4847L108.61 36.1575H113.646L113.822 36.4654L113.588 39.8229H108.566L108.39 47.7182L108.749 56.8011H102.811L103.171 48.1874L103.112 39.8156H99.9743L99.7983 39.5663L100.033 36.1428H103.053L102.995 33.5917C102.995 30.8133 103.786 28.658 105.362 27.1185C106.939 25.5864 109.174 24.8167 112.055 24.8167C113.28 24.7727 114.563 24.8973 115.904 25.1905L115.897 25.2052Z" fill="white"/>
<path d="M87.4165 35.681C90.0776 35.681 92.0716 36.2015 93.3912 37.2424C94.7107 38.2834 95.3705 39.7276 95.3705 41.5676C95.3705 42.0881 95.2679 43.7889 95.0699 46.6699L94.8867 51.5962C94.8867 52.1167 94.9453 52.4686 95.0699 52.6445C95.1945 52.8205 95.4291 52.9158 95.7883 52.9158C96.1476 52.9158 96.5654 52.8571 97.0492 52.7325L97.5331 53.0917L96.932 56.2146C95.9716 56.8158 94.894 57.197 93.6917 57.3583C91.771 57.197 90.6054 56.0974 90.2096 54.052H89.909C88.3842 55.6502 86.8447 56.7718 85.2832 57.4169C83.1206 57.3729 81.4199 56.7938 80.181 55.6722C78.9421 54.5505 78.3189 53.0477 78.3189 51.171C78.3189 48.246 79.8584 46.4866 82.9447 45.8855L89.8504 44.6246V42.7626C89.8504 40.8052 88.9267 39.8229 87.0866 39.8229C85.2466 39.8229 83.084 40.6806 80.5988 42.4033L80.115 42.1614L79.4552 38.1954C82.0943 36.5167 84.7481 35.6736 87.4092 35.6736L87.4165 35.681ZM85.1733 48.4586C84.2496 48.6566 83.7951 49.221 83.7951 50.1374C83.7951 51.9408 84.5722 52.8425 86.1336 52.8425C87.2919 52.8425 88.5381 52.1387 89.8577 50.7385L89.975 47.3737L85.1733 48.4513V48.4586Z" fill="white"/>
<path d="M74.0964 30.1169C75.7238 31.6417 76.5302 33.6796 76.5302 36.2234C76.5302 38.7672 76.0611 40.8492 75.1154 42.4547C74.1697 44.0601 72.8062 45.321 71.0248 46.2447C69.236 47.1684 67.1467 47.6302 64.7349 47.6302H61.8466L62.0885 56.8084H55.9672L56.3264 48.1727L55.9672 27.8956L67.1394 27.837C70.1451 27.837 72.4616 28.5994 74.0891 30.1242L74.0964 30.1169ZM69.9545 37.1691C69.9545 35.527 69.5439 34.3174 68.7229 33.533C67.9018 32.756 66.6336 32.3454 64.9108 32.3014L61.8466 32.4847L61.7293 42.8725L65.8125 43.1144C68.5763 42.2714 69.9545 40.2921 69.9545 37.1691Z" fill="white"/>
</g>
<defs>
<clipPath id="clip0_4322_17">
<rect width="176.541" height="47.2766" fill="white" transform="translate(16.41 16.8774)"/>
</clipPath>
</defs>
</svg>
